P2
8 1000
255
80 5 10 10 10 18 144 80
88 82 38 49 74 196 137 88
209 166 108 99 113 29 198 209
169 165 225 105 169 169 169 169
180 163 142 27 177 204 99 180
87 171 181 94 233 151 234 87
26 41 100 140 146 21 44 26
39 201 226 177 116 156 106 39
33 9 18 5 24 96 10 33
9 17 80 10 33 24 34 9
132 24 34 20 160 34 24 132
22 25 76 164 50 81 152 22
195 60 149 43 92 147 85 195
88 69 194 22 44 81 134 88
101 147 120 165 92 153 105 101
184 90 154 120 184 184 184 184
174 244 185 47 242 229 236 174
63 63 250 183 219 125 238 63
32 4 32 2 16 1 128 32
130 136 36 18 12 66 20 130
35 11 7 70 196 44 137 35
80 5 10 10 10 18 144 80
88 82 38 49 74 196 137 88
209 166 108 99 113 29 198 209
169 165 225 105 169 169 169 169
180 163 142 27 177 204 99 180
87 171 181 94 233 151 234 87
26 41 100 140 146 21 44 26
39 201 226 177 116 156 106 39
33 9 18 5 24 96 10 33
9 17 80 10 33 24 34 9
132 24 34 20 160 34 24 132
22 25 76 164 50 81 152 22
195 60 149 43 92 147 85 195
88 69 194 22 44 81 134 88
101 147 120 165 92 153 105 101
184 90 154 120 184 184 184 184
174 244 185 47 242 229 236 174
63 63 250 183 219 125 238 63
32 4 32 2 16 1 128 32
130 136 36 18 12 66 20 130
35 11 7 70 196 44 137 35
80 5 10 10 10 18 144 80
88 82 38 49 74 196 137 88
209 166 108 99 113 29 198 209
169 165 225 105 169 169 169 169
180 163 142 27 177 204 99 180
87 171 181 94 233 151 234 87
26 41 100 140 146 21 44 26
39 201 226 177 116 156 106 39
33 9 18 5 24 96 10 33
9 17 80 10 33 24 34 9
132 24 34 20 160 34 24 132
22 25 76 164 50 81 152 22
195 60 149 43 92 147 85 195
88 69 194 22 44 81 134 88
101 147 120 165 92 153 105 101
184 90 154 120 184 184 184 184
174 244 185 47 242 229 236 174
63 63 250 183 219 125 238 63
32 4 32 2 16 1 128 32
130 136 36 18 12 66 20 130
35 11 7 70 196 44 137 35
80 5 10 10 10 18 144 80
88 82 38 49 74 196 137 88
209 166 108 99 113 29 198 209
169 165 225 105 169 169 169 169
180 163 142 27 177 204 99 180
87 171 181 94 233 151 234 87
26 41 100 140 146 21 44 26
39 201 226 177 116 156 106 39
33 9 18 5 24 96 10 33
9 17 80 10 33 24 34 9
132 24 34 20 160 34 24 132
22 25 76 164 50 81 152 22
195 60 149 43 92 147 85 195
88 69 194 22 44 81 134 88
101 147 120 165 92 153 105 101
184 90 154 120 184 184 184 184
174 244 185 47 242 229 236 174
63 63 250 183 219 125 238 63
32 4 32 2 16 1 128 32
130 136 36 18 12 66 20 130
35 11 7 70 196 44 137 35
80 5 10 10 10 18 144 80
88 82 38 49 74 196 137 88
209 166 108 99 113 29 198 209
169 165 225 105 169 169 169 169
180 163 142 27 177 204 99 180
87 171 181 94 233 151 234 87
26 41 100 140 146 21 44 26
39 201 226 177 116 156 106 39
33 9 18 5 24 96 10 33
9 17 80 10 33 24 34 9
132 24 34 20 160 34 24 132
22 25 76 164 50 81 152 22
195 60 149 43 92 147 85 195
88 69 194 22 44 81 134 88
101 147 120 165 92 153 105 101
184 90 154 120 184 184 184 184
174 244 185 47 242 229 236 174
63 63 250 183 219 125 238 63
32 4 32 2 16 1 128 32
130 136 36 18 12 66 20 130
35 11 7 70 196 44 137 35
80 5 10 10 10 18 144 80
88 82 38 49 74 196 137 88
209 166 108 99 113 29 198 209
169 165 225 105 169 169 169 169
180 163 142 27 177 204 99 180
87 171 181 94 233 151 234 87
26 41 100 140 146 21 44 26
39 201 226 177 116 156 106 39
33 9 18 5 24 96 10 33
9 17 80 10 33 24 34 9
132 24 34 20 160 34 24 132
22 25 76 164 50 81 152 22
195 60 149 43 92 147 85 195
88 69 194 22 44 81 134 88
101 147 120 165 92 153 105 101
184 90 154 120 184 184 184 184
174 244 185 47 242 229 236 174
63 63 250 183 219 125 238 63
32 4 32 2 16 1 128 32
130 136 36 18 12 66 20 130
35 11 7 70 196 44 137 35
80 5 10 10 10 18 144 80
88 82 38 49 74 196 137 88
209 166 108 99 113 29 198 209
169 165 225 105 169 169 169 169
180 163 142 27 177 204 99 180
87 171 181 94 233 151 234 87
26 41 100 140 146 21 44 26
39 201 226 177 116 156 106 39
33 9 18 5 24 96 10 33
9 17 80 10 33 24 34 9
132 24 34 20 160 34 24 132
22 25 76 164 50 81 152 22
195 60 149 43 92 147 85 195
88 69 194 22 44 81 134 88
101 147 120 165 92 153 105 101
184 90 154 120 184 184 184 184
174 244 185 47 242 229 236 174
63 63 250 183 219 125 238 63
32 4 32 2 16 1 128 32
130 136 36 18 12 66 20 130
35 11 7 70 196 44 137 35
80 5 10 10 10 18 144 80
88 82 38 49 74 196 137 88
209 166 108 99 113 29 198 209
169 165 225 105 169 169 169 169
180 163 142 27 177 204 99 180
87 171 181 94 233 151 234 87
26 41 100 140 146 21 44 26
39 201 226 177 116 156 106 39
33 9 18 5 24 96 10 33
9 17 80 10 33 24 34 9
132 24 34 20 160 34 24 132
22 25 76 164 50 81 152 22
195 60 149 43 92 147 85 195
88 69 194 22 44 81 134 88
101 147 120 165 92 153 105 101
184 90 154 120 184 184 184 184
174 244 185 47 242 229 236 174
63 63 250 183 219 125 238 63
32 4 32 2 16 1 128 32
130 136 36 18 12 66 20 130
35 11 7 70 196 44 137 35
80 5 10 10 10 18 144 80
88 82 38 49 74 196 137 88
209 166 108 99 113 29 198 209
169 165 225 105 169 169 169 169
180 163 142 27 177 204 99 180
87 171 181 94 233 151 234 87
26 41 100 140 146 21 44 26
39 201 226 177 116 156 106 39
33 9 18 5 24 96 10 33
9 17 80 10 33 24 34 9
132 24 34 20 160 34 24 132
22 25 76 164 50 81 152 22
195 60 149 43 92 147 85 195
88 69 194 22 44 81 134 88
101 147 120 165 92 153 105 101
184 90 154 120 184 184 184 184
174 244 185 47 242 229 236 174
63 63 250 183 219 125 238 63
32 4 32 2 16 1 128 32
130 136 36 18 12 66 20 130
35 11 7 70 196 44 137 35
80 5 10 10 10 18 144 80
88 82 38 49 74 196 137 88
209 166 108 99 113 29 198 209
169 165 225 105 169 169 169 169
180 163 142 27 177 204 99 180
87 171 181 94 233 151 234 87
26 41 100 140 146 21 44 26
39 201 226 177 116 156 106 39
33 9 18 5 24 96 10 33
9 17 80 10 33 24 34 9
132 24 34 20 160 34 24 132
22 25 76 164 50 81 152 22
195 60 149 43 92 147 85 195
88 69 194 22 44 81 134 88
101 147 120 165 92 153 105 101
184 90 154 120 184 184 184 184
174 244 185 47 242 229 236 174
63 63 250 183 219 125 238 63
32 4 32 2 16 1 128 32
130 136 36 18 12 66 20 130
35 11 7 70 196 44 137 35
80 5 10 10 10 18 144 80
88 82 38 49 74 196 137 88
209 166 108 99 113 29 198 209
169 165 225 105 169 169 169 169
180 163 142 27 177 204 99 180
87 171 181 94 233 151 234 87
26 41 100 140 146 21 44 26
39 201 226 177 116 156 106 39
33 9 18 5 24 96 10 33
9 17 80 10 33 24 34 9
132 24 34 20 160 34 24 132
22 25 76 164 50 81 152 22
195 60 149 43 92 147 85 195
88 69 194 22 44 81 134 88
101 147 120 165 92 153 105 101
184 90 154 120 184 184 184 184
174 244 185 47 242 229 236 174
63 63 250 183 219 125 238 63
32 4 32 2 16 1 128 32
130 136 36 18 12 66 20 130
35 11 7 70 196 44 137 35
80 5 10 10 10 18 144 80
88 82 38 49 74 196 137 88
209 166 108 99 113 29 198 209
169 165 225 105 169 169 169 169
180 163 142 27 177 204 99 180
87 171 181 94 233 151 234 87
26 41 100 140 146 21 44 26
39 201 226 177 116 156 106 39
33 9 18 5 24 96 10 33
9 17 80 10 33 24 34 9
132 24 34 20 160 34 24 132
22 25 76 164 50 81 152 22
195 60 149 43 92 147 85 195
88 69 194 22 44 81 134 88
101 147 120 165 92 153 105 101
184 90 154 120 184 184 184 184
174 244 185 47 242 229 236 174
63 63 250 183 219 125 238 63
32 4 32 2 16 1 128 32
130 136 36 18 12 66 20 130
35 11 7 70 196 44 137 35
80 5 10 10 10 18 144 80
88 82 38 49 74 196 137 88
209 166 108 99 113 29 198 209
169 165 225 105 169 169 169 169
180 163 142 27 177 204 99 180
87 171 181 94 233 151 234 87
26 41 100 140 146 21 44 26
39 201 226 177 116 156 106 39
33 9 18 5 24 96 10 33
9 17 80 10 33 24 34 9
132 24 34 20 160 34 24 132
22 25 76 164 50 81 152 22
195 60 149 43 92 147 85 195
88 69 194 22 44 81 134 88
101 147 120 165 92 153 105 101
184 90 154 120 184 184 184 184
174 244 185 47 242 229 236 174
63 63 250 183 219 125 238 63
32 4 32 2 16 1 128 32
130 136 36 18 12 66 20 130
35 11 7 70 196 44 137 35
80 5 10 10 10 18 144 80
88 82 38 49 74 196 137 88
209 166 108 99 113 29 198 209
169 165 225 105 169 169 169 169
180 163 142 27 177 204 99 180
87 171 181 94 233 151 234 87
26 41 100 140 146 21 44 26
39 201 226 177 116 156 106 39
33 9 18 5 24 96 10 33
9 17 80 10 33 24 34 9
132 24 34 20 160 34 24 132
22 25 76 164 50 81 152 22
195 60 149 43 92 147 85 195
88 69 194 22 44 81 134 88
101 147 120 165 92 153 105 101
184 90 154 120 184 184 184 184
174 244 185 47 242 229 236 174
63 63 250 183 219 125 238 63
32 4 32 2 16 1 128 32
130 136 36 18 12 66 20 130
35 11 7 70 196 44 137 35
80 5 10 10 10 18 144 80
88 82 38 49 74 196 137 88
209 166 108 99 113 29 198 209
169 165 225 105 169 169 169 169
180 163 142 27 177 204 99 180
87 171 181 94 233 151 234 87
26 41 100 140 146 21 44 26
39 201 226 177 116 156 106 39
33 9 18 5 24 96 10 33
9 17 80 10 33 24 34 9
132 24 34 20 160 34 24 132
22 25 76 164 50 81 152 22
195 60 149 43 92 147 85 195
88 69 194 22 44 81 134 88
101 147 120 165 92 153 105 101
184 90 154 120 184 184 184 184
174 244 185 47 242 229 236 174
63 63 250 183 219 125 238 63
32 4 32 2 16 1 128 32
130 136 36 18 12 66 20 130
35 11 7 70 196 44 137 35
80 5 10 10 10 18 144 80
88 82 38 49 74 196 137 88
209 166 108 99 113 29 198 209
169 165 225 105 169 169 169 169
180 163 142 27 177 204 99 180
87 171 181 94 233 151 234 87
26 41 100 140 146 21 44 26
39 201 226 177 116 156 106 39
33 9 18 5 24 96 10 33
9 17 80 10 33 24 34 9
132 24 34 20 160 34 24 132
22 25 76 164 50 81 152 22
195 60 149 43 92 147 85 195
88 69 194 22 44 81 134 88
101 147 120 165 92 153 105 101
184 90 154 120 184 184 184 184
174 244 185 47 242 229 236 174
63 63 250 183 219 125 238 63
32 4 32 2 16 1 128 32
130 136 36 18 12 66 20 130
35 11 7 70 196 44 137 35
80 5 10 10 10 18 144 80
88 82 38 49 74 196 137 88
209 166 108 99 113 29 198 209
169 165 225 105 169 169 169 169
180 163 142 27 177 204 99 180
87 171 181 94 233 151 234 87
26 41 100 140 146 21 44 26
39 201 226 177 116 156 106 39
33 9 18 5 24 96 10 33
9 17 80 10 33 24 34 9
132 24 34 20 160 34 24 132
22 25 76 164 50 81 152 22
195 60 149 43 92 147 85 195
88 69 194 22 44 81 134 88
101 147 120 165 92 153 105 101
184 90 154 120 184 184 184 184
174 244 185 47 242 229 236 174
63 63 250 183 219 125 238 63
32 4 32 2 16 1 128 32
130 136 36 18 12 66 20 130
35 11 7 70 196 44 137 35
80 5 10 10 10 18 144 80
88 82 38 49 74 196 137 88
209 166 108 99 113 29 198 209
169 165 225 105 169 169 169 169
180 163 142 27 177 204 99 180
87 171 181 94 233 151 234 87
26 41 100 140 146 21 44 26
39 201 226 177 116 156 106 39
33 9 18 5 24 96 10 33
9 17 80 10 33 24 34 9
132 24 34 20 160 34 24 132
22 25 76 164 50 81 152 22
195 60 149 43 92 147 85 195
88 69 194 22 44 81 134 88
101 147 120 165 92 153 105 101
184 90 154 120 184 184 184 184
174 244 185 47 242 229 236 174
63 63 250 183 219 125 238 63
32 4 32 2 16 1 128 32
130 136 36 18 12 66 20 130
35 11 7 70 196 44 137 35
80 5 10 10 10 18 144 80
88 82 38 49 74 196 137 88
209 166 108 99 113 29 198 209
169 165 225 105 169 169 169 169
180 163 142 27 177 204 99 180
87 171 181 94 233 151 234 87
26 41 100 140 146 21 44 26
39 201 226 177 116 156 106 39
33 9 18 5 24 96 10 33
9 17 80 10 33 24 34 9
132 24 34 20 160 34 24 132
22 25 76 164 50 81 152 22
195 60 149 43 92 147 85 195
88 69 194 22 44 81 134 88
101 147 120 165 92 153 105 101
184 90 154 120 184 184 184 184
174 244 185 47 242 229 236 174
63 63 250 183 219 125 238 63
32 4 32 2 16 1 128 32
130 136 36 18 12 66 20 130
35 11 7 70 196 44 137 35
80 5 10 10 10 18 144 80
88 82 38 49 74 196 137 88
209 166 108 99 113 29 198 209
169 165 225 105 169 169 169 169
180 163 142 27 177 204 99 180
87 171 181 94 233 151 234 87
26 41 100 140 146 21 44 26
39 201 226 177 116 156 106 39
33 9 18 5 24 96 10 33
9 17 80 10 33 24 34 9
132 24 34 20 160 34 24 132
22 25 76 164 50 81 152 22
195 60 149 43 92 147 85 195
88 69 194 22 44 81 134 88
101 147 120 165 92 153 105 101
184 90 154 120 184 184 184 184
174 244 185 47 242 229 236 174
63 63 250 183 219 125 238 63
32 4 32 2 16 1 128 32
130 136 36 18 12 66 20 130
35 11 7 70 196 44 137 35
80 5 10 10 10 18 144 80
88 82 38 49 74 196 137 88
209 166 108 99 113 29 198 209
169 165 225 105 169 169 169 169
180 163 142 27 177 204 99 180
87 171 181 94 233 151 234 87
26 41 100 140 146 21 44 26
39 201 226 177 116 156 106 39
33 9 18 5 24 96 10 33
9 17 80 10 33 24 34 9
132 24 34 20 160 34 24 132
22 25 76 164 50 81 152 22
195 60 149 43 92 147 85 195
88 69 194 22 44 81 134 88
101 147 120 165 92 153 105 101
184 90 154 120 184 184 184 184
174 244 185 47 242 229 236 174
63 63 250 183 219 125 238 63
32 4 32 2 16 1 128 32
130 136 36 18 12 66 20 130
35 11 7 70 196 44 137 35
80 5 10 10 10 18 144 80
88 82 38 49 74 196 137 88
209 166 108 99 113 29 198 209
169 165 225 105 169 169 169 169
180 163 142 27 177 204 99 180
87 171 181 94 233 151 234 87
26 41 100 140 146 21 44 26
39 201 226 177 116 156 106 39
33 9 18 5 24 96 10 33
9 17 80 10 33 24 34 9
132 24 34 20 160 34 24 132
22 25 76 164 50 81 152 22
195 60 149 43 92 147 85 195
88 69 194 22 44 81 134 88
101 147 120 165 92 153 105 101
184 90 154 120 184 184 184 184
174 244 185 47 242 229 236 174
63 63 250 183 219 125 238 63
32 4 32 2 16 1 128 32
130 136 36 18 12 66 20 130
35 11 7 70 196 44 137 35
80 5 10 10 10 18 144 80
88 82 38 49 74 196 137 88
209 166 108 99 113 29 198 209
169 165 225 105 169 169 169 169
180 163 142 27 177 204 99 180
87 171 181 94 233 151 234 87
26 41 100 140 146 21 44 26
39 201 226 177 116 156 106 39
33 9 18 5 24 96 10 33
9 17 80 10 33 24 34 9
132 24 34 20 160 34 24 132
22 25 76 164 50 81 152 22
195 60 149 43 92 147 85 195
88 69 194 22 44 81 134 88
101 147 120 165 92 153 105 101
184 90 154 120 184 184 184 184
174 244 185 47 242 229 236 174
63 63 250 183 219 125 238 63
32 4 32 2 16 1 128 32
130 136 36 18 12 66 20 130
35 11 7 70 196 44 137 35
80 5 10 10 10 18 144 80
88 82 38 49 74 196 137 88
209 166 108 99 113 29 198 209
169 165 225 105 169 169 169 169
180 163 142 27 177 204 99 180
87 171 181 94 233 151 234 87
26 41 100 140 146 21 44 26
39 201 226 177 116 156 106 39
33 9 18 5 24 96 10 33
9 17 80 10 33 24 34 9
132 24 34 20 160 34 24 132
22 25 76 164 50 81 152 22
195 60 149 43 92 147 85 195
88 69 194 22 44 81 134 88
101 147 120 165 92 153 105 101
184 90 154 120 184 184 184 184
174 244 185 47 242 229 236 174
63 63 250 183 219 125 238 63
32 4 32 2 16 1 128 32
130 136 36 18 12 66 20 130
35 11 7 70 196 44 137 35
80 5 10 10 10 18 144 80
88 82 38 49 74 196 137 88
209 166 108 99 113 29 198 209
169 165 225 105 169 169 169 169
180 163 142 27 177 204 99 180
87 171 181 94 233 151 234 87
26 41 100 140 146 21 44 26
39 201 226 177 116 156 106 39
33 9 18 5 24 96 10 33
9 17 80 10 33 24 34 9
132 24 34 20 160 34 24 132
22 25 76 164 50 81 152 22
195 60 149 43 92 147 85 195
88 69 194 22 44 81 134 88
101 147 120 165 92 153 105 101
184 90 154 120 184 184 184 184
174 244 185 47 242 229 236 174
63 63 250 183 219 125 238 63
32 4 32 2 16 1 128 32
130 136 36 18 12 66 20 130
35 11 7 70 196 44 137 35
80 5 10 10 10 18 144 80
88 82 38 49 74 196 137 88
209 166 108 99 113 29 198 209
169 165 225 105 169 169 169 169
180 163 142 27 177 204 99 180
87 171 181 94 233 151 234 87
26 41 100 140 146 21 44 26
39 201 226 177 116 156 106 39
33 9 18 5 24 96 10 33
9 17 80 10 33 24 34 9
132 24 34 20 160 34 24 132
22 25 76 164 50 81 152 22
195 60 149 43 92 147 85 195
88 69 194 22 44 81 134 88
101 147 120 165 92 153 105 101
184 90 154 120 184 184 184 184
174 244 185 47 242 229 236 174
63 63 250 183 219 125 238 63
32 4 32 2 16 1 128 32
130 136 36 18 12 66 20 130
35 11 7 70 196 44 137 35
80 5 10 10 10 18 144 80
88 82 38 49 74 196 137 88
209 166 108 99 113 29 198 209
169 165 225 105 169 169 169 169
180 163 142 27 177 204 99 180
87 171 181 94 233 151 234 87
26 41 100 140 146 21 44 26
39 201 226 177 116 156 106 39
33 9 18 5 24 96 10 33
9 17 80 10 33 24 34 9
132 24 34 20 160 34 24 132
22 25 76 164 50 81 152 22
195 60 149 43 92 147 85 195
88 69 194 22 44 81 134 88
101 147 120 165 92 153 105 101
184 90 154 120 184 184 184 184
174 244 185 47 242 229 236 174
63 63 250 183 219 125 238 63
32 4 32 2 16 1 128 32
130 136 36 18 12 66 20 130
35 11 7 70 196 44 137 35
80 5 10 10 10 18 144 80
88 82 38 49 74 196 137 88
209 166 108 99 113 29 198 209
169 165 225 105 169 169 169 169
180 163 142 27 177 204 99 180
87 171 181 94 233 151 234 87
26 41 100 140 146 21 44 26
39 201 226 177 116 156 106 39
33 9 18 5 24 96 10 33
9 17 80 10 33 24 34 9
132 24 34 20 160 34 24 132
22 25 76 164 50 81 152 22
195 60 149 43 92 147 85 195
88 69 194 22 44 81 134 88
101 147 120 165 92 153 105 101
184 90 154 120 184 184 184 184
174 244 185 47 242 229 236 174
63 63 250 183 219 125 238 63
32 4 32 2 16 1 128 32
130 136 36 18 12 66 20 130
35 11 7 70 196 44 137 35
80 5 10 10 10 18 144 80
88 82 38 49 74 196 137 88
209 166 108 99 113 29 198 209
169 165 225 105 169 169 169 169
180 163 142 27 177 204 99 180
87 171 181 94 233 151 234 87
26 41 100 140 146 21 44 26
39 201 226 177 116 156 106 39
33 9 18 5 24 96 10 33
9 17 80 10 33 24 34 9
132 24 34 20 160 34 24 132
22 25 76 164 50 81 152 22
195 60 149 43 92 147 85 195
88 69 194 22 44 81 134 88
101 147 120 165 92 153 105 101
184 90 154 120 184 184 184 184
174 244 185 47 242 229 236 174
63 63 250 183 219 125 238 63
32 4 32 2 16 1 128 32
130 136 36 18 12 66 20 130
35 11 7 70 196 44 137 35
80 5 10 10 10 18 144 80
88 82 38 49 74 196 137 88
209 166 108 99 113 29 198 209
169 165 225 105 169 169 169 169
180 163 142 27 177 204 99 180
87 171 181 94 233 151 234 87
26 41 100 140 146 21 44 26
39 201 226 177 116 156 106 39
33 9 18 5 24 96 10 33
9 17 80 10 33 24 34 9
132 24 34 20 160 34 24 132
22 25 76 164 50 81 152 22
195 60 149 43 92 147 85 195
88 69 194 22 44 81 134 88
101 147 120 165 92 153 105 101
184 90 154 120 184 184 184 184
174 244 185 47 242 229 236 174
63 63 250 183 219 125 238 63
32 4 32 2 16 1 128 32
130 136 36 18 12 66 20 130
35 11 7 70 196 44 137 35
80 5 10 10 10 18 144 80
88 82 38 49 74 196 137 88
209 166 108 99 113 29 198 209
169 165 225 105 169 169 169 169
180 163 142 27 177 204 99 180
87 171 181 94 233 151 234 87
26 41 100 140 146 21 44 26
39 201 226 177 116 156 106 39
33 9 18 5 24 96 10 33
9 17 80 10 33 24 34 9
132 24 34 20 160 34 24 132
22 25 76 164 50 81 152 22
195 60 149 43 92 147 85 195
88 69 194 22 44 81 134 88
101 147 120 165 92 153 105 101
184 90 154 120 184 184 184 184
174 244 185 47 242 229 236 174
63 63 250 183 219 125 238 63
32 4 32 2 16 1 128 32
130 136 36 18 12 66 20 130
35 11 7 70 196 44 137 35
80 5 10 10 10 18 144 80
88 82 38 49 74 196 137 88
209 166 108 99 113 29 198 209
169 165 225 105 169 169 169 169
180 163 142 27 177 204 99 180
87 171 181 94 233 151 234 87
26 41 100 140 146 21 44 26
39 201 226 177 116 156 106 39
33 9 18 5 24 96 10 33
9 17 80 10 33 24 34 9
132 24 34 20 160 34 24 132
22 25 76 164 50 81 152 22
195 60 149 43 92 147 85 195
88 69 194 22 44 81 134 88
101 147 120 165 92 153 105 101
184 90 154 120 184 184 184 184
174 244 185 47 242 229 236 174
63 63 250 183 219 125 238 63
32 4 32 2 16 1 128 32
130 136 36 18 12 66 20 130
35 11 7 70 196 44 137 35
80 5 10 10 10 18 144 80
88 82 38 49 74 196 137 88
209 166 108 99 113 29 198 209
169 165 225 105 169 169 169 169
180 163 142 27 177 204 99 180
87 171 181 94 233 151 234 87
26 41 100 140 146 21 44 26
39 201 226 177 116 156 106 39
33 9 18 5 24 96 10 33
9 17 80 10 33 24 34 9
132 24 34 20 160 34 24 132
22 25 76 164 50 81 152 22
195 60 149 43 92 147 85 195
88 69 194 22 44 81 134 88
101 147 120 165 92 153 105 101
184 90 154 120 184 184 184 184
174 244 185 47 242 229 236 174
63 63 250 183 219 125 238 63
32 4 32 2 16 1 128 32
130 136 36 18 12 66 20 130
35 11 7 70 196 44 137 35
80 5 10 10 10 18 144 80
88 82 38 49 74 196 137 88
209 166 108 99 113 29 198 209
169 165 225 105 169 169 169 169
180 163 142 27 177 204 99 180
87 171 181 94 233 151 234 87
26 41 100 140 146 21 44 26
39 201 226 177 116 156 106 39
33 9 18 5 24 96 10 33
9 17 80 10 33 24 34 9
132 24 34 20 160 34 24 132
22 25 76 164 50 81 152 22
195 60 149 43 92 147 85 195
88 69 194 22 44 81 134 88
101 147 120 165 92 153 105 101
184 90 154 120 184 184 184 184
174 244 185 47 242 229 236 174
63 63 250 183 219 125 238 63
32 4 32 2 16 1 128 32
130 136 36 18 12 66 20 130
35 11 7 70 196 44 137 35
80 5 10 10 10 18 144 80
88 82 38 49 74 196 137 88
209 166 108 99 113 29 198 209
169 165 225 105 169 169 169 169
180 163 142 27 177 204 99 180
87 171 181 94 233 151 234 87
26 41 100 140 146 21 44 26
39 201 226 177 116 156 106 39
33 9 18 5 24 96 10 33
9 17 80 10 33 24 34 9
132 24 34 20 160 34 24 132
22 25 76 164 50 81 152 22
195 60 149 43 92 147 85 195
88 69 194 22 44 81 134 88
101 147 120 165 92 153 105 101
184 90 154 120 184 184 184 184
174 244 185 47 242 229 236 174
63 63 250 183 219 125 238 63
32 4 32 2 16 1 128 32
130 136 36 18 12 66 20 130
35 11 7 70 196 44 137 35
80 5 10 10 10 18 144 80
88 82 38 49 74 196 137 88
209 166 108 99 113 29 198 209
169 165 225 105 169 169 169 169
180 163 142 27 177 204 99 180
87 171 181 94 233 151 234 87
26 41 100 140 146 21 44 26
39 201 226 177 116 156 106 39
33 9 18 5 24 96 10 33
9 17 80 10 33 24 34 9
132 24 34 20 160 34 24 132
22 25 76 164 50 81 152 22
195 60 149 43 92 147 85 195
88 69 194 22 44 81 134 88
101 147 120 165 92 153 105 101
184 90 154 120 184 184 184 184
174 244 185 47 242 229 236 174
63 63 250 183 219 125 238 63
32 4 32 2 16 1 128 32
130 136 36 18 12 66 20 130
35 11 7 70 196 44 137 35
80 5 10 10 10 18 144 80
88 82 38 49 74 196 137 88
209 166 108 99 113 29 198 209
169 165 225 105 169 169 169 169
180 163 142 27 177 204 99 180
87 171 181 94 233 151 234 87
26 41 100 140 146 21 44 26
39 201 226 177 116 156 106 39
33 9 18 5 24 96 10 33
9 17 80 10 33 24 34 9
132 24 34 20 160 34 24 132
22 25 76 164 50 81 152 22
195 60 149 43 92 147 85 195
88 69 194 22 44 81 134 88
101 147 120 165 92 153 105 101
184 90 154 120 184 184 184 184
174 244 185 47 242 229 236 174
63 63 250 183 219 125 238 63
32 4 32 2 16 1 128 32
130 136 36 18 12 66 20 130
35 11 7 70 196 44 137 35
80 5 10 10 10 18 144 80
88 82 38 49 74 196 137 88
209 166 108 99 113 29 198 209
169 165 225 105 169 169 169 169
180 163 142 27 177 204 99 180
87 171 181 94 233 151 234 87
26 41 100 140 146 21 44 26
39 201 226 177 116 156 106 39
33 9 18 5 24 96 10 33
9 17 80 10 33 24 34 9
132 24 34 20 160 34 24 132
22 25 76 164 50 81 152 22
195 60 149 43 92 147 85 195
88 69 194 22 44 81 134 88
101 147 120 165 92 153 105 101
184 90 154 120 184 184 184 184
174 244 185 47 242 229 236 174
63 63 250 183 219 125 238 63
32 4 32 2 16 1 128 32
130 136 36 18 12 66 20 130
35 11 7 70 196 44 137 35
80 5 10 10 10 18 144 80
88 82 38 49 74 196 137 88
209 166 108 99 113 29 198 209
169 165 225 105 169 169 169 169
180 163 142 27 177 204 99 180
87 171 181 94 233 151 234 87
26 41 100 140 146 21 44 26
39 201 226 177 116 156 106 39
33 9 18 5 24 96 10 33
9 17 80 10 33 24 34 9
132 24 34 20 160 34 24 132
22 25 76 164 50 81 152 22
195 60 149 43 92 147 85 195
88 69 194 22 44 81 134 88
101 147 120 165 92 153 105 101
184 90 154 120 184 184 184 184
174 244 185 47 242 229 236 174
63 63 250 183 219 125 238 63
32 4 32 2 16 1 128 32
130 136 36 18 12 66 20 130
35 11 7 70 196 44 137 35
80 5 10 10 10 18 144 80
88 82 38 49 74 196 137 88
209 166 108 99 113 29 198 209
169 165 225 105 169 169 169 169
180 163 142 27 177 204 99 180
87 171 181 94 233 151 234 87
26 41 100 140 146 21 44 26
39 201 226 177 116 156 106 39
33 9 18 5 24 96 10 33
9 17 80 10 33 24 34 9
132 24 34 20 160 34 24 132
22 25 76 164 50 81 152 22
195 60 149 43 92 147 85 195
88 69 194 22 44 81 134 88
101 147 120 165 92 153 105 101
184 90 154 120 184 184 184 184
174 244 185 47 242 229 236 174
63 63 250 183 219 125 238 63
32 4 32 2 16 1 128 32
130 136 36 18 12 66 20 130
35 11 7 70 196 44 137 35
80 5 10 10 10 18 144 80
88 82 38 49 74 196 137 88
209 166 108 99 113 29 198 209
169 165 225 105 169 169 169 169
180 163 142 27 177 204 99 180
87 171 181 94 233 151 234 87
26 41 100 140 146 21 44 26
39 201 226 177 116 156 106 39
33 9 18 5 24 96 10 33
9 17 80 10 33 24 34 9
132 24 34 20 160 34 24 132
22 25 76 164 50 81 152 22
195 60 149 43 92 147 85 195
88 69 194 22 44 81 134 88
101 147 120 165 92 153 105 101
184 90 154 120 184 184 184 184
174 244 185 47 242 229 236 174
63 63 250 183 219 125 238 63
32 4 32 2 16 1 128 32
130 136 36 18 12 66 20 130
35 11 7 70 196 44 137 35
80 5 10 10 10 18 144 80
88 82 38 49 74 196 137 88
209 166 108 99 113 29 198 209
169 165 225 105 169 169 169 169
180 163 142 27 177 204 99 180
87 171 181 94 233 151 234 87
26 41 100 140 146 21 44 26
39 201 226 177 116 156 106 39
33 9 18 5 24 96 10 33
9 17 80 10 33 24 34 9
132 24 34 20 160 34 24 132
22 25 76 164 50 81 152 22
195 60 149 43 92 147 85 195
88 69 194 22 44 81 134 88
101 147 120 165 92 153 105 101
184 90 154 120 184 184 184 184
174 244 185 47 242 229 236 174
63 63 250 183 219 125 238 63
32 4 32 2 16 1 128 32
130 136 36 18 12 66 20 130
35 11 7 70 196 44 137 35
80 5 10 10 10 18 144 80
88 82 38 49 74 196 137 88
209 166 108 99 113 29 198 209
169 165 225 105 169 169 169 169
180 163 142 27 177 204 99 180
87 171 181 94 233 151 234 87
26 41 100 140 146 21 44 26
39 201 226 177 116 156 106 39
33 9 18 5 24 96 10 33
9 17 80 10 33 24 34 9
132 24 34 20 160 34 24 132
22 25 76 164 50 81 152 22
195 60 149 43 92 147 85 195
88 69 194 22 44 81 134 88
101 147 120 165 92 153 105 101
184 90 154 120 184 184 184 184
174 244 185 47 242 229 236 174
63 63 250 183 219 125 238 63
32 4 32 2 16 1 128 32
130 136 36 18 12 66 20 130
35 11 7 70 196 44 137 35
80 5 10 10 10 18 144 80
88 82 38 49 74 196 137 88
209 166 108 99 113 29 198 209
169 165 225 105 169 169 169 169
180 163 142 27 177 204 99 180
87 171 181 94 233 151 234 87
26 41 100 140 146 21 44 26
39 201 226 177 116 156 106 39
33 9 18 5 24 96 10 33
9 17 80 10 33 24 34 9
132 24 34 20 160 34 24 132
22 25 76 164 50 81 152 22
195 60 149 43 92 147 85 195
88 69 194 22 44 81 134 88
101 147 120 165 92 153 105 101
184 90 154 120 184 184 184 184
174 244 185 47 242 229 236 174
63 63 250 183 219 125 238 63
32 4 32 2 16 1 128 32
130 136 36 18 12 66 20 130
35 11 7 70 196 44 137 35
80 5 10 10 10 18 144 80
88 82 38 49 74 196 137 88
209 166 108 99 113 29 198 209
169 165 225 105 169 169 169 169
180 163 142 27 177 204 99 180
87 171 181 94 233 151 234 87
26 41 100 140 146 21 44 26
39 201 226 177 116 156 106 39
33 9 18 5 24 96 10 33
9 17 80 10 33 24 34 9
132 24 34 20 160 34 24 132
22 25 76 164 50 81 152 22
195 60 149 43 92 147 85 195
88 69 194 22 44 81 134 88
101 147 120 165 92 153 105 101
184 90 154 120 184 184 184 184
174 244 185 47 242 229 236 174
63 63 250 183 219 125 238 63
32 4 32 2 16 1 128 32
130 136 36 18 12 66 20 130
35 11 7 70 196 44 137 35
80 5 10 10 10 18 144 80
88 82 38 49 74 196 137 88
209 166 108 99 113 29 198 209
169 165 225 105 169 169 169 169
180 163 142 27 177 204 99 180
87 171 181 94 233 151 234 87
26 41 100 140 146 21 44 26
39 201 226 177 116 156 106 39
33 9 18 5 24 96 10 33
9 17 80 10 33 24 34 9
132 24 34 20 160 34 24 132
22 25 76 164 50 81 152 22
195 60 149 43 92 147 85 195
88 69 194 22 44 81 134 88
101 147 120 165 92 153 105 101
184 90 154 120 184 184 184 184
174 244 185 47 242 229 236 174
63 63 250 183 219 125 238 63
32 4 32 2 16 1 128 32
130 136 36 18 12 66 20 130
35 11 7 70 196 44 137 35
80 5 10 10 10 18 144 80
88 82 38 49 74 196 137 88
209 166 108 99 113 29 198 209
169 165 225 105 169 169 169 169
180 163 142 27 177 204 99 180
87 171 181 94 233 151 234 87
26 41 100 140 146 21 44 26
39 201 226 177 116 156 106 39
33 9 18 5 24 96 10 33
9 17 80 10 33 24 34 9
132 24 34 20 160 34 24 132
22 25 76 164 50 81 152 22
195 60 149 43 92 147 85 195
88 69 194 22 44 81 134 88
101 147 120 165 92 153 105 101
184 90 154 120 184 184 184 184
174 244 185 47 242 229 236 174
63 63 250 183 219 125 238 63
32 4 32 2 16 1 128 32
130 136 36 18 12 66 20 130
35 11 7 70 196 44 137 35
80 5 10 10 10 18 144 80
88 82 38 49 74 196 137 88
209 166 108 99 113 29 198 209
169 165 225 105 169 169 169 169
180 163 142 27 177 204 99 180
87 171 181 94 233 151 234 87
26 41 100 140 146 21 44 26
39 201 226 177 116 156 106 39
33 9 18 5 24 96 10 33
9 17 80 10 33 24 34 9
132 24 34 20 160 34 24 132
22 25 76 164 50 81 152 22
195 60 149 43 92 147 85 195
