<svg width="512" height="384" viewBox="0 0 512 384" xmlns="http://www.w3.org/2000/svg">
<rect x="0" y="0" width="512" height="384" opacity="1" fill="#FFFFFF" stroke="none"/>
<line opacity="0.1" stroke="#000000" stroke-width="1" x1="128" y1="333" x2="128" y2="50"/>
<line opacity="0.1" stroke="#000000" stroke-width="1" x1="162" y1="333" x2="162" y2="50"/>
<line opacity="0.1" stroke="#000000" stroke-width="1" x1="182" y1="333" x2="182" y2="50"/>
<line opacity="0.1" stroke="#000000" stroke-width="1" x1="196" y1="333" x2="196" y2="50"/>
<line opacity="0.1" stroke="#000000" stroke-width="1" x1="207" y1="333" x2="207" y2="50"/>
<line opacity="0.1" stroke="#000000" stroke-width="1" x1="216" y1="333" x2="216" y2="50"/>
<line opacity="0.1" stroke="#000000" stroke-width="1" x1="224" y1="333" x2="224" y2="50"/>
<line opacity="0.1" stroke="#000000" stroke-width="1" x1="230" y1="333" x2="230" y2="50"/>
<line opacity="0.1" stroke="#000000" stroke-width="1" x1="236" y1="333" x2="236" y2="50"/>
<line opacity="0.1" stroke="#000000" stroke-width="1" x1="241" y1="333" x2="241" y2="50"/>
<line opacity="0.1" stroke="#000000" stroke-width="1" x1="241" y1="333" x2="241" y2="50"/>
<line opacity="0.1" stroke="#000000" stroke-width="1" x1="275" y1="333" x2="275" y2="50"/>
<line opacity="0.1" stroke="#000000" stroke-width="1" x1="295" y1="333" x2="295" y2="50"/>
<line opacity="0.1" stroke="#000000" stroke-width="1" x1="309" y1="333" x2="309" y2="50"/>
<line opacity="0.1" stroke="#000000" stroke-width="1" x1="320" y1="333" x2="320" y2="50"/>
<line opacity="0.1" stroke="#000000" stroke-width="1" x1="329" y1="333" x2="329" y2="50"/>
<line opacity="0.1" stroke="#000000" stroke-width="1" x1="336" y1="333" x2="336" y2="50"/>
<line opacity="0.1" stroke="#000000" stroke-width="1" x1="343" y1="333" x2="343" y2="50"/>
<line opacity="0.1" stroke="#000000" stroke-width="1" x1="349" y1="333" x2="349" y2="50"/>
<line opacity="0.1" stroke="#000000" stroke-width="1" x1="354" y1="333" x2="354" y2="50"/>
<line opacity="0.1" stroke="#000000" stroke-width="1" x1="354" y1="333" x2="354" y2="50"/>
<line opacity="0.1" stroke="#000000" stroke-width="1" x1="388" y1="333" x2="388" y2="50"/>
<line opacity="0.1" stroke="#000000" stroke-width="1" x1="408" y1="333" x2="408" y2="50"/>
<line opacity="0.1" stroke="#000000" stroke-width="1" x1="422" y1="333" x2="422" y2="50"/>
<line opacity="0.1" stroke="#000000" stroke-width="1" x1="433" y1="333" x2="433" y2="50"/>
<line opacity="0.1" stroke="#000000" stroke-width="1" x1="442" y1="333" x2="442" y2="50"/>
<line opacity="0.1" stroke="#000000" stroke-width="1" x1="449" y1="333" x2="449" y2="50"/>
<line opacity="0.1" stroke="#000000" stroke-width="1" x1="456" y1="333" x2="456" y2="50"/>
<line opacity="0.1" stroke="#000000" stroke-width="1" x1="461" y1="333" x2="461" y2="50"/>
<line opacity="0.1" stroke="#000000" stroke-width="1" x1="467" y1="333" x2="467" y2="50"/>
<line opacity="0.1" stroke="#000000" stroke-width="1" x1="467" y1="333" x2="467" y2="50"/>
<line opacity="0.1" stroke="#000000" stroke-width="1" x1="501" y1="333" x2="501" y2="50"/>
<line opacity="0.1" stroke="#000000" stroke-width="1" x1="50" y1="333" x2="501" y2="333"/>
<line opacity="0.1" stroke="#000000" stroke-width="1" x1="50" y1="321" x2="501" y2="321"/>
<line opacity="0.1" stroke="#000000" stroke-width="1" x1="50" y1="308" x2="501" y2="308"/>
<line opacity="0.1" stroke="#000000" stroke-width="1" x1="50" y1="295" x2="501" y2="295"/>
<line opacity="0.1" stroke="#000000" stroke-width="1" x1="50" y1="282" x2="501" y2="282"/>
<line opacity="0.1" stroke="#000000" stroke-width="1" x1="50" y1="269" x2="501" y2="269"/>
<line opacity="0.1" stroke="#000000" stroke-width="1" x1="50" y1="256" x2="501" y2="256"/>
<line opacity="0.1" stroke="#000000" stroke-width="1" x1="50" y1="243" x2="501" y2="243"/>
<line opacity="0.1" stroke="#000000" stroke-width="1" x1="50" y1="231" x2="501" y2="231"/>
<line opacity="0.1" stroke="#000000" stroke-width="1" x1="50" y1="218" x2="501" y2="218"/>
<line opacity="0.1" stroke="#000000" stroke-width="1" x1="50" y1="205" x2="501" y2="205"/>
<line opacity="0.1" stroke="#000000" stroke-width="1" x1="50" y1="192" x2="501" y2="192"/>
<line opacity="0.1" stroke="#000000" stroke-width="1" x1="50" y1="179" x2="501" y2="179"/>
<line opacity="0.1" stroke="#000000" stroke-width="1" x1="50" y1="166" x2="501" y2="166"/>
<line opacity="0.1" stroke="#000000" stroke-width="1" x1="50" y1="153" x2="501" y2="153"/>
<line opacity="0.1" stroke="#000000" stroke-width="1" x1="50" y1="141" x2="501" y2="141"/>
<line opacity="0.1" stroke="#000000" stroke-width="1" x1="50" y1="128" x2="501" y2="128"/>
<line opacity="0.1" stroke="#000000" stroke-width="1" x1="50" y1="115" x2="501" y2="115"/>
<line opacity="0.1" stroke="#000000" stroke-width="1" x1="50" y1="102" x2="501" y2="102"/>
<line opacity="0.1" stroke="#000000" stroke-width="1" x1="50" y1="89" x2="501" y2="89"/>
<line opacity="0.1" stroke="#000000" stroke-width="1" x1="50" y1="76" x2="501" y2="76"/>
<line opacity="0.1" stroke="#000000" stroke-width="1" x1="50" y1="63" x2="501" y2="63"/>
<line opacity="0.1" stroke="#000000" stroke-width="1" x1="50" y1="50" x2="501" y2="50"/>
<text x="10" y="192" dy="0.76em" text-anchor="middle" font-family="sans-serif" font-size="16.129032258064516" opacity="1" fill="#000000" transform="rotate(270, 10, 192)">
relative to tau_exp
</text>
<text x="276" y="374" dy="-0.5ex" text-anchor="middle" font-family="sans-serif" font-size="16.129032258064516" opacity="1" fill="#000000">
k / tau_int
</text>
<line opacity="0.2" stroke="#000000" stroke-width="1" x1="128" y1="333" x2="128" y2="50"/>
<line opacity="0.2" stroke="#000000" stroke-width="1" x1="241" y1="333" x2="241" y2="50"/>
<line opacity="0.2" stroke="#000000" stroke-width="1" x1="354" y1="333" x2="354" y2="50"/>
<line opacity="0.2" stroke="#000000" stroke-width="1" x1="467" y1="333" x2="467" y2="50"/>
<line opacity="0.2" stroke="#000000" stroke-width="1" x1="50" y1="333" x2="501" y2="333"/>
<line opacity="0.2" stroke="#000000" stroke-width="1" x1="50" y1="282" x2="501" y2="282"/>
<line opacity="0.2" stroke="#000000" stroke-width="1" x1="50" y1="231" x2="501" y2="231"/>
<line opacity="0.2" stroke="#000000" stroke-width="1" x1="50" y1="179" x2="501" y2="179"/>
<line opacity="0.2" stroke="#000000" stroke-width="1" x1="50" y1="128" x2="501" y2="128"/>
<line opacity="0.2" stroke="#000000" stroke-width="1" x1="50" y1="76" x2="501" y2="76"/>
<polyline fill="none" opacity="1" stroke="#000000" stroke-width="1" points="49,50 49,333 "/>
<text x="40" y="333" dy="0.5ex" text-anchor="end" font-family="sans-serif" font-size="9.67741935483871" opacity="1" fill="#000000">
0.0
</text>
<polyline fill="none" opacity="1" stroke="#000000" stroke-width="1" points="44,333 49,333 "/>
<text x="40" y="282" dy="0.5ex" text-anchor="end" font-family="sans-serif" font-size="9.67741935483871" opacity="1" fill="#000000">
0.2
</text>
<polyline fill="none" opacity="1" stroke="#000000" stroke-width="1" points="44,282 49,282 "/>
<text x="40" y="231" dy="0.5ex" text-anchor="end" font-family="sans-serif" font-size="9.67741935483871" opacity="1" fill="#000000">
0.4
</text>
<polyline fill="none" opacity="1" stroke="#000000" stroke-width="1" points="44,231 49,231 "/>
<text x="40" y="179" dy="0.5ex" text-anchor="end" font-family="sans-serif" font-size="9.67741935483871" opacity="1" fill="#000000">
0.6
</text>
<polyline fill="none" opacity="1" stroke="#000000" stroke-width="1" points="44,179 49,179 "/>
<text x="40" y="128" dy="0.5ex" text-anchor="end" font-family="sans-serif" font-size="9.67741935483871" opacity="1" fill="#000000">
0.8
</text>
<polyline fill="none" opacity="1" stroke="#000000" stroke-width="1" points="44,128 49,128 "/>
<text x="40" y="76" dy="0.5ex" text-anchor="end" font-family="sans-serif" font-size="9.67741935483871" opacity="1" fill="#000000">
1.0
</text>
<polyline fill="none" opacity="1" stroke="#000000" stroke-width="1" points="44,76 49,76 "/>
<polyline fill="none" opacity="1" stroke="#000000" stroke-width="1" points="50,334 501,334 "/>
<text x="128" y="344" dy="0.76em" text-anchor="middle" font-family="sans-serif" font-size="9.67741935483871" opacity="1" fill="#000000">
1e0
</text>
<polyline fill="none" opacity="1" stroke="#000000" stroke-width="1" points="128,334 128,339 "/>
<text x="241" y="344" dy="0.76em" text-anchor="middle" font-family="sans-serif" font-size="9.67741935483871" opacity="1" fill="#000000">
1e1
</text>
<polyline fill="none" opacity="1" stroke="#000000" stroke-width="1" points="241,334 241,339 "/>
<text x="354" y="344" dy="0.76em" text-anchor="middle" font-family="sans-serif" font-size="9.67741935483871" opacity="1" fill="#000000">
1e2
</text>
<polyline fill="none" opacity="1" stroke="#000000" stroke-width="1" points="354,334 354,339 "/>
<text x="467" y="344" dy="0.76em" text-anchor="middle" font-family="sans-serif" font-size="9.67741935483871" opacity="1" fill="#000000">
1e3
</text>
<polyline fill="none" opacity="1" stroke="#000000" stroke-width="1" points="467,334 467,339 "/>
<text x="276" y="10" dy="0.76em" text-anchor="middle" font-family="sans-serif" font-size="16.129032258064516" opacity="1" fill="#000000">
N / k
</text>
<polyline fill="none" opacity="1" stroke="#000000" stroke-width="1" points="50,49 502,49 "/>
<text x="502" y="40" dy="-0.5ex" text-anchor="middle" font-family="sans-serif" font-size="9.67741935483871" opacity="1" fill="#000000">
1e1
</text>
<polyline fill="none" opacity="1" stroke="#000000" stroke-width="1" points="502,44 502,49 "/>
<text x="389" y="40" dy="-0.5ex" text-anchor="middle" font-family="sans-serif" font-size="9.67741935483871" opacity="1" fill="#000000">
1e2
</text>
<polyline fill="none" opacity="1" stroke="#000000" stroke-width="1" points="389,44 389,49 "/>
<text x="276" y="40" dy="-0.5ex" text-anchor="middle" font-family="sans-serif" font-size="9.67741935483871" opacity="1" fill="#000000">
1e3
</text>
<polyline fill="none" opacity="1" stroke="#000000" stroke-width="1" points="276,44 276,49 "/>
<text x="163" y="40" dy="-0.5ex" text-anchor="middle" font-family="sans-serif" font-size="9.67741935483871" opacity="1" fill="#000000">
1e4
</text>
<polyline fill="none" opacity="1" stroke="#000000" stroke-width="1" points="163,44 163,49 "/>
<text x="50" y="40" dy="-0.5ex" text-anchor="middle" font-family="sans-serif" font-size="9.67741935483871" opacity="1" fill="#000000">
1e5
</text>
<polyline fill="none" opacity="1" stroke="#000000" stroke-width="1" points="50,44 50,49 "/>
<polyline fill="none" opacity="1" stroke="#000000" stroke-width="1" points="50,76 501,76 "/>
<polyline fill="none" opacity="1" stroke="#FF0000" stroke-width="2" points="50,101 501,101 "/>
<polygon opacity="0.2" fill="#000000" points="501,50 491,50 482,50 473,50 464,50 455,50 446,50 437,50 428,50 419,50 410,56 401,56 392,65 383,68 374,72 365,74 356,77 347,81 338,84 329,87 320,89 311,92 302,95 293,98 284,101 275,104 266,107 257,112 248,116 239,122 230,128 221,135 213,143 203,153 194,165 185,176 175,191 167,204 157,219 151,228 137,250 128,263 117,277 103,294 83,312 50,333 50,333 83,312 103,294 117,278 128,264 137,251 151,230 157,221 167,206 175,194 185,180 194,170 203,159 213,151 221,144 230,139 239,134 248,130 257,128 266,125 275,124 284,123 293,123 302,123 311,123 320,123 329,125 338,125 347,126 356,129 365,131 374,134 383,137 392,140 401,142 410,148 419,150 428,154 437,160 446,164 455,174 464,176 473,182 482,191 491,204 501,213 "/>
<line opacity="1" stroke="#000000" stroke-width="1" x1="48" y1="333" x2="52" y2="333"/>
<line opacity="1" stroke="#000000" stroke-width="1" x1="48" y1="333" x2="52" y2="333"/>
<line opacity="1" stroke="#000000" stroke-width="1" x1="50" y1="333" x2="50" y2="333"/>
<circle cx="50" cy="333" r="2" opacity="1" fill="#000000" stroke="none" stroke-width="1"/>
<line opacity="1" stroke="#000000" stroke-width="1" x1="81" y1="312" x2="85" y2="312"/>
<line opacity="1" stroke="#000000" stroke-width="1" x1="81" y1="312" x2="85" y2="312"/>
<line opacity="1" stroke="#000000" stroke-width="1" x1="83" y1="312" x2="83" y2="312"/>
<circle cx="83" cy="312" r="2" opacity="1" fill="#000000" stroke="none" stroke-width="1"/>
<line opacity="1" stroke="#000000" stroke-width="1" x1="101" y1="294" x2="105" y2="294"/>
<line opacity="1" stroke="#000000" stroke-width="1" x1="101" y1="294" x2="105" y2="294"/>
<line opacity="1" stroke="#000000" stroke-width="1" x1="103" y1="294" x2="103" y2="294"/>
<circle cx="103" cy="294" r="2" opacity="1" fill="#000000" stroke="none" stroke-width="1"/>
<line opacity="1" stroke="#000000" stroke-width="1" x1="115" y1="278" x2="119" y2="278"/>
<line opacity="1" stroke="#000000" stroke-width="1" x1="115" y1="277" x2="119" y2="277"/>
<line opacity="1" stroke="#000000" stroke-width="1" x1="117" y1="278" x2="117" y2="277"/>
<circle cx="117" cy="278" r="2" opacity="1" fill="#000000" stroke="none" stroke-width="1"/>
<line opacity="1" stroke="#000000" stroke-width="1" x1="126" y1="264" x2="130" y2="264"/>
<line opacity="1" stroke="#000000" stroke-width="1" x1="126" y1="263" x2="130" y2="263"/>
<line opacity="1" stroke="#000000" stroke-width="1" x1="128" y1="264" x2="128" y2="263"/>
<circle cx="128" cy="263" r="2" opacity="1" fill="#000000" stroke="none" stroke-width="1"/>
<line opacity="1" stroke="#000000" stroke-width="1" x1="135" y1="251" x2="139" y2="251"/>
<line opacity="1" stroke="#000000" stroke-width="1" x1="135" y1="250" x2="139" y2="250"/>
<line opacity="1" stroke="#000000" stroke-width="1" x1="137" y1="251" x2="137" y2="250"/>
<circle cx="137" cy="250" r="2" opacity="1" fill="#000000" stroke="none" stroke-width="1"/>
<line opacity="1" stroke="#000000" stroke-width="1" x1="149" y1="230" x2="153" y2="230"/>
<line opacity="1" stroke="#000000" stroke-width="1" x1="149" y1="228" x2="153" y2="228"/>
<line opacity="1" stroke="#000000" stroke-width="1" x1="151" y1="230" x2="151" y2="228"/>
<circle cx="151" cy="229" r="2" opacity="1" fill="#000000" stroke="none" stroke-width="1"/>
<line opacity="1" stroke="#000000" stroke-width="1" x1="155" y1="221" x2="159" y2="221"/>
<line opacity="1" stroke="#000000" stroke-width="1" x1="155" y1="219" x2="159" y2="219"/>
<line opacity="1" stroke="#000000" stroke-width="1" x1="157" y1="221" x2="157" y2="219"/>
<circle cx="157" cy="220" r="2" opacity="1" fill="#000000" stroke="none" stroke-width="1"/>
<line opacity="1" stroke="#000000" stroke-width="1" x1="165" y1="206" x2="169" y2="206"/>
<line opacity="1" stroke="#000000" stroke-width="1" x1="165" y1="204" x2="169" y2="204"/>
<line opacity="1" stroke="#000000" stroke-width="1" x1="167" y1="206" x2="167" y2="204"/>
<circle cx="167" cy="205" r="2" opacity="1" fill="#000000" stroke="none" stroke-width="1"/>
<line opacity="1" stroke="#000000" stroke-width="1" x1="173" y1="194" x2="177" y2="194"/>
<line opacity="1" stroke="#000000" stroke-width="1" x1="173" y1="191" x2="177" y2="191"/>
<line opacity="1" stroke="#000000" stroke-width="1" x1="175" y1="194" x2="175" y2="191"/>
<circle cx="175" cy="192" r="2" opacity="1" fill="#000000" stroke="none" stroke-width="1"/>
<line opacity="1" stroke="#000000" stroke-width="1" x1="183" y1="180" x2="187" y2="180"/>
<line opacity="1" stroke="#000000" stroke-width="1" x1="183" y1="176" x2="187" y2="176"/>
<line opacity="1" stroke="#000000" stroke-width="1" x1="185" y1="180" x2="185" y2="176"/>
<circle cx="185" cy="178" r="2" opacity="1" fill="#000000" stroke="none" stroke-width="1"/>
<line opacity="1" stroke="#000000" stroke-width="1" x1="192" y1="170" x2="196" y2="170"/>
<line opacity="1" stroke="#000000" stroke-width="1" x1="192" y1="165" x2="196" y2="165"/>
<line opacity="1" stroke="#000000" stroke-width="1" x1="194" y1="170" x2="194" y2="165"/>
<circle cx="194" cy="167" r="2" opacity="1" fill="#000000" stroke="none" stroke-width="1"/>
<line opacity="1" stroke="#000000" stroke-width="1" x1="201" y1="159" x2="205" y2="159"/>
<line opacity="1" stroke="#000000" stroke-width="1" x1="201" y1="153" x2="205" y2="153"/>
<line opacity="1" stroke="#000000" stroke-width="1" x1="203" y1="159" x2="203" y2="153"/>
<circle cx="203" cy="156" r="2" opacity="1" fill="#000000" stroke="none" stroke-width="1"/>
<line opacity="1" stroke="#000000" stroke-width="1" x1="211" y1="151" x2="215" y2="151"/>
<line opacity="1" stroke="#000000" stroke-width="1" x1="211" y1="143" x2="215" y2="143"/>
<line opacity="1" stroke="#000000" stroke-width="1" x1="213" y1="151" x2="213" y2="143"/>
<circle cx="213" cy="147" r="2" opacity="1" fill="#000000" stroke="none" stroke-width="1"/>
<line opacity="1" stroke="#000000" stroke-width="1" x1="219" y1="144" x2="223" y2="144"/>
<line opacity="1" stroke="#000000" stroke-width="1" x1="219" y1="135" x2="223" y2="135"/>
<line opacity="1" stroke="#000000" stroke-width="1" x1="221" y1="144" x2="221" y2="135"/>
<circle cx="221" cy="140" r="2" opacity="1" fill="#000000" stroke="none" stroke-width="1"/>
<line opacity="1" stroke="#000000" stroke-width="1" x1="228" y1="139" x2="232" y2="139"/>
<line opacity="1" stroke="#000000" stroke-width="1" x1="228" y1="128" x2="232" y2="128"/>
<line opacity="1" stroke="#000000" stroke-width="1" x1="230" y1="139" x2="230" y2="128"/>
<circle cx="230" cy="133" r="2" opacity="1" fill="#000000" stroke="none" stroke-width="1"/>
<line opacity="1" stroke="#000000" stroke-width="1" x1="237" y1="134" x2="241" y2="134"/>
<line opacity="1" stroke="#000000" stroke-width="1" x1="237" y1="122" x2="241" y2="122"/>
<line opacity="1" stroke="#000000" stroke-width="1" x1="239" y1="134" x2="239" y2="122"/>
<circle cx="239" cy="128" r="2" opacity="1" fill="#000000" stroke="none" stroke-width="1"/>
<line opacity="1" stroke="#000000" stroke-width="1" x1="246" y1="130" x2="250" y2="130"/>
<line opacity="1" stroke="#000000" stroke-width="1" x1="246" y1="116" x2="250" y2="116"/>
<line opacity="1" stroke="#000000" stroke-width="1" x1="248" y1="130" x2="248" y2="116"/>
<circle cx="248" cy="123" r="2" opacity="1" fill="#000000" stroke="none" stroke-width="1"/>
<line opacity="1" stroke="#000000" stroke-width="1" x1="255" y1="128" x2="259" y2="128"/>
<line opacity="1" stroke="#000000" stroke-width="1" x1="255" y1="112" x2="259" y2="112"/>
<line opacity="1" stroke="#000000" stroke-width="1" x1="257" y1="128" x2="257" y2="112"/>
<circle cx="257" cy="120" r="2" opacity="1" fill="#000000" stroke="none" stroke-width="1"/>
<line opacity="1" stroke="#000000" stroke-width="1" x1="264" y1="125" x2="268" y2="125"/>
<line opacity="1" stroke="#000000" stroke-width="1" x1="264" y1="107" x2="268" y2="107"/>
<line opacity="1" stroke="#000000" stroke-width="1" x1="266" y1="125" x2="266" y2="107"/>
<circle cx="266" cy="116" r="2" opacity="1" fill="#000000" stroke="none" stroke-width="1"/>
<line opacity="1" stroke="#000000" stroke-width="1" x1="273" y1="124" x2="277" y2="124"/>
<line opacity="1" stroke="#000000" stroke-width="1" x1="273" y1="104" x2="277" y2="104"/>
<line opacity="1" stroke="#000000" stroke-width="1" x1="275" y1="124" x2="275" y2="104"/>
<circle cx="275" cy="114" r="2" opacity="1" fill="#000000" stroke="none" stroke-width="1"/>
<line opacity="1" stroke="#000000" stroke-width="1" x1="282" y1="123" x2="286" y2="123"/>
<line opacity="1" stroke="#000000" stroke-width="1" x1="282" y1="101" x2="286" y2="101"/>
<line opacity="1" stroke="#000000" stroke-width="1" x1="284" y1="123" x2="284" y2="101"/>
<circle cx="284" cy="112" r="2" opacity="1" fill="#000000" stroke="none" stroke-width="1"/>
<line opacity="1" stroke="#000000" stroke-width="1" x1="291" y1="123" x2="295" y2="123"/>
<line opacity="1" stroke="#000000" stroke-width="1" x1="291" y1="98" x2="295" y2="98"/>
<line opacity="1" stroke="#000000" stroke-width="1" x1="293" y1="123" x2="293" y2="98"/>
<circle cx="293" cy="110" r="2" opacity="1" fill="#000000" stroke="none" stroke-width="1"/>
<line opacity="1" stroke="#000000" stroke-width="1" x1="300" y1="123" x2="304" y2="123"/>
<line opacity="1" stroke="#000000" stroke-width="1" x1="300" y1="95" x2="304" y2="95"/>
<line opacity="1" stroke="#000000" stroke-width="1" x1="302" y1="123" x2="302" y2="95"/>
<circle cx="302" cy="109" r="2" opacity="1" fill="#000000" stroke="none" stroke-width="1"/>
<line opacity="1" stroke="#000000" stroke-width="1" x1="309" y1="123" x2="313" y2="123"/>
<line opacity="1" stroke="#000000" stroke-width="1" x1="309" y1="92" x2="313" y2="92"/>
<line opacity="1" stroke="#000000" stroke-width="1" x1="311" y1="123" x2="311" y2="92"/>
<circle cx="311" cy="107" r="2" opacity="1" fill="#000000" stroke="none" stroke-width="1"/>
<line opacity="1" stroke="#000000" stroke-width="1" x1="318" y1="123" x2="322" y2="123"/>
<line opacity="1" stroke="#000000" stroke-width="1" x1="318" y1="89" x2="322" y2="89"/>
<line opacity="1" stroke="#000000" stroke-width="1" x1="320" y1="123" x2="320" y2="89"/>
<circle cx="320" cy="106" r="2" opacity="1" fill="#000000" stroke="none" stroke-width="1"/>
<line opacity="1" stroke="#000000" stroke-width="1" x1="327" y1="125" x2="331" y2="125"/>
<line opacity="1" stroke="#000000" stroke-width="1" x1="327" y1="87" x2="331" y2="87"/>
<line opacity="1" stroke="#000000" stroke-width="1" x1="329" y1="125" x2="329" y2="87"/>
<circle cx="329" cy="106" r="2" opacity="1" fill="#000000" stroke="none" stroke-width="1"/>
<line opacity="1" stroke="#000000" stroke-width="1" x1="336" y1="125" x2="340" y2="125"/>
<line opacity="1" stroke="#000000" stroke-width="1" x1="336" y1="84" x2="340" y2="84"/>
<line opacity="1" stroke="#000000" stroke-width="1" x1="338" y1="125" x2="338" y2="84"/>
<circle cx="338" cy="104" r="2" opacity="1" fill="#000000" stroke="none" stroke-width="1"/>
<line opacity="1" stroke="#000000" stroke-width="1" x1="345" y1="126" x2="349" y2="126"/>
<line opacity="1" stroke="#000000" stroke-width="1" x1="345" y1="81" x2="349" y2="81"/>
<line opacity="1" stroke="#000000" stroke-width="1" x1="347" y1="126" x2="347" y2="81"/>
<circle cx="347" cy="103" r="2" opacity="1" fill="#000000" stroke="none" stroke-width="1"/>
<line opacity="1" stroke="#000000" stroke-width="1" x1="354" y1="129" x2="358" y2="129"/>
<line opacity="1" stroke="#000000" stroke-width="1" x1="354" y1="77" x2="358" y2="77"/>
<line opacity="1" stroke="#000000" stroke-width="1" x1="356" y1="129" x2="356" y2="77"/>
<circle cx="356" cy="103" r="2" opacity="1" fill="#000000" stroke="none" stroke-width="1"/>
<line opacity="1" stroke="#000000" stroke-width="1" x1="363" y1="131" x2="367" y2="131"/>
<line opacity="1" stroke="#000000" stroke-width="1" x1="363" y1="74" x2="367" y2="74"/>
<line opacity="1" stroke="#000000" stroke-width="1" x1="365" y1="131" x2="365" y2="74"/>
<circle cx="365" cy="102" r="2" opacity="1" fill="#000000" stroke="none" stroke-width="1"/>
<line opacity="1" stroke="#000000" stroke-width="1" x1="372" y1="134" x2="376" y2="134"/>
<line opacity="1" stroke="#000000" stroke-width="1" x1="372" y1="72" x2="376" y2="72"/>
<line opacity="1" stroke="#000000" stroke-width="1" x1="374" y1="134" x2="374" y2="72"/>
<circle cx="374" cy="103" r="2" opacity="1" fill="#000000" stroke="none" stroke-width="1"/>
<line opacity="1" stroke="#000000" stroke-width="1" x1="381" y1="137" x2="385" y2="137"/>
<line opacity="1" stroke="#000000" stroke-width="1" x1="381" y1="68" x2="385" y2="68"/>
<line opacity="1" stroke="#000000" stroke-width="1" x1="383" y1="137" x2="383" y2="68"/>
<circle cx="383" cy="102" r="2" opacity="1" fill="#000000" stroke="none" stroke-width="1"/>
<line opacity="1" stroke="#000000" stroke-width="1" x1="390" y1="140" x2="394" y2="140"/>
<line opacity="1" stroke="#000000" stroke-width="1" x1="390" y1="65" x2="394" y2="65"/>
<line opacity="1" stroke="#000000" stroke-width="1" x1="392" y1="140" x2="392" y2="65"/>
<circle cx="392" cy="102" r="2" opacity="1" fill="#000000" stroke="none" stroke-width="1"/>
<line opacity="1" stroke="#000000" stroke-width="1" x1="399" y1="142" x2="403" y2="142"/>
<line opacity="1" stroke="#000000" stroke-width="1" x1="399" y1="56" x2="403" y2="56"/>
<line opacity="1" stroke="#000000" stroke-width="1" x1="401" y1="142" x2="401" y2="56"/>
<circle cx="401" cy="99" r="2" opacity="1" fill="#000000" stroke="none" stroke-width="1"/>
<line opacity="1" stroke="#000000" stroke-width="1" x1="408" y1="148" x2="412" y2="148"/>
<line opacity="1" stroke="#000000" stroke-width="1" x1="408" y1="56" x2="412" y2="56"/>
<line opacity="1" stroke="#000000" stroke-width="1" x1="410" y1="148" x2="410" y2="56"/>
<circle cx="410" cy="102" r="2" opacity="1" fill="#000000" stroke="none" stroke-width="1"/>
<line opacity="1" stroke="#000000" stroke-width="1" x1="417" y1="150" x2="421" y2="150"/>
<line opacity="1" stroke="#000000" stroke-width="1" x1="417" y1="50" x2="421" y2="50"/>
<line opacity="1" stroke="#000000" stroke-width="1" x1="419" y1="150" x2="419" y2="50"/>
<circle cx="419" cy="100" r="2" opacity="1" fill="#000000" stroke="none" stroke-width="1"/>
<line opacity="1" stroke="#000000" stroke-width="1" x1="426" y1="154" x2="430" y2="154"/>
<line opacity="1" stroke="#000000" stroke-width="1" x1="426" y1="50" x2="430" y2="50"/>
<line opacity="1" stroke="#000000" stroke-width="1" x1="428" y1="154" x2="428" y2="50"/>
<circle cx="428" cy="99" r="2" opacity="1" fill="#000000" stroke="none" stroke-width="1"/>
<line opacity="1" stroke="#000000" stroke-width="1" x1="435" y1="160" x2="439" y2="160"/>
<line opacity="1" stroke="#000000" stroke-width="1" x1="435" y1="50" x2="439" y2="50"/>
<line opacity="1" stroke="#000000" stroke-width="1" x1="437" y1="160" x2="437" y2="50"/>
<circle cx="437" cy="101" r="2" opacity="1" fill="#000000" stroke="none" stroke-width="1"/>
<line opacity="1" stroke="#000000" stroke-width="1" x1="444" y1="164" x2="448" y2="164"/>
<line opacity="1" stroke="#000000" stroke-width="1" x1="444" y1="50" x2="448" y2="50"/>
<line opacity="1" stroke="#000000" stroke-width="1" x1="446" y1="164" x2="446" y2="50"/>
<circle cx="446" cy="98" r="2" opacity="1" fill="#000000" stroke="none" stroke-width="1"/>
<line opacity="1" stroke="#000000" stroke-width="1" x1="453" y1="174" x2="457" y2="174"/>
<line opacity="1" stroke="#000000" stroke-width="1" x1="453" y1="50" x2="457" y2="50"/>
<line opacity="1" stroke="#000000" stroke-width="1" x1="455" y1="174" x2="455" y2="50"/>
<circle cx="455" cy="102" r="2" opacity="1" fill="#000000" stroke="none" stroke-width="1"/>
<line opacity="1" stroke="#000000" stroke-width="1" x1="462" y1="176" x2="466" y2="176"/>
<line opacity="1" stroke="#000000" stroke-width="1" x1="462" y1="50" x2="466" y2="50"/>
<line opacity="1" stroke="#000000" stroke-width="1" x1="464" y1="176" x2="464" y2="50"/>
<circle cx="464" cy="89" r="2" opacity="1" fill="#000000" stroke="none" stroke-width="1"/>
<line opacity="1" stroke="#000000" stroke-width="1" x1="471" y1="182" x2="475" y2="182"/>
<line opacity="1" stroke="#000000" stroke-width="1" x1="471" y1="50" x2="475" y2="50"/>
<line opacity="1" stroke="#000000" stroke-width="1" x1="473" y1="182" x2="473" y2="50"/>
<circle cx="473" cy="93" r="2" opacity="1" fill="#000000" stroke="none" stroke-width="1"/>
<line opacity="1" stroke="#000000" stroke-width="1" x1="480" y1="191" x2="484" y2="191"/>
<line opacity="1" stroke="#000000" stroke-width="1" x1="480" y1="50" x2="484" y2="50"/>
<line opacity="1" stroke="#000000" stroke-width="1" x1="482" y1="191" x2="482" y2="50"/>
<circle cx="482" cy="86" r="2" opacity="1" fill="#000000" stroke="none" stroke-width="1"/>
<line opacity="1" stroke="#000000" stroke-width="1" x1="489" y1="204" x2="493" y2="204"/>
<line opacity="1" stroke="#000000" stroke-width="1" x1="489" y1="50" x2="493" y2="50"/>
<line opacity="1" stroke="#000000" stroke-width="1" x1="491" y1="204" x2="491" y2="50"/>
<circle cx="491" cy="98" r="2" opacity="1" fill="#000000" stroke="none" stroke-width="1"/>
<line opacity="1" stroke="#000000" stroke-width="1" x1="499" y1="213" x2="503" y2="213"/>
<line opacity="1" stroke="#000000" stroke-width="1" x1="499" y1="50" x2="503" y2="50"/>
<line opacity="1" stroke="#000000" stroke-width="1" x1="501" y1="213" x2="501" y2="50"/>
<circle cx="501" cy="94" r="2" opacity="1" fill="#000000" stroke="none" stroke-width="1"/>
<polyline fill="none" opacity="1" stroke="#000000" stroke-width="1" points="50,333 83,312 103,294 117,278 128,263 137,250 151,229 157,220 167,205 175,192 185,178 194,167 203,156 213,147 221,140 230,133 239,128 248,123 257,120 266,116 275,114 284,112 293,110 302,109 311,107 320,106 329,106 338,104 347,103 356,103 365,102 374,103 383,102 392,102 401,99 410,102 419,100 428,99 437,101 446,98 455,102 464,89 473,93 482,86 491,98 501,94 "/>
<rect x="413" y="270" width="84" height="59" opacity="1" fill="#FFFFFF" stroke="none"/>
<rect x="413" y="270" width="84" height="59" opacity="1" fill="none" stroke="#000000"/>
<text x="453" y="280" dy="0.76em" text-anchor="start" font-family="sans-serif" font-size="9.67741935483871" opacity="1" fill="#000000">
tau_exp
</text>
<text x="453" y="295" dy="0.76em" text-anchor="start" font-family="sans-serif" font-size="9.67741935483871" opacity="1" fill="#000000">
tau_int
</text>
<text x="453" y="310" dy="0.76em" text-anchor="start" font-family="sans-serif" font-size="9.67741935483871" opacity="1" fill="#000000">
binning
</text>
<polyline fill="none" opacity="1" stroke="#000000" stroke-width="1" points="423,284 443,284 "/>
<polyline fill="none" opacity="1" stroke="#FF0000" stroke-width="1" points="423,299 443,299 "/>
<line opacity="1" stroke="#000000" stroke-width="1" x1="431" y1="309" x2="435" y2="309"/>
<line opacity="1" stroke="#000000" stroke-width="1" x1="431" y1="319" x2="435" y2="319"/>
<line opacity="1" stroke="#000000" stroke-width="1" x1="433" y1="309" x2="433" y2="319"/>
<circle cx="433" cy="314" r="2" opacity="1" fill="#000000" stroke="none" stroke-width="1"/>
</svg>
